<?xml version="1.0" encoding="utf-8"?><svg xmlns="http://www.w3.org/2000/svg" xmlns:xlink="http://www.w3.org/1999/xlink" width="1830" height="57" preserveAspectRatio="xMidYMid" viewBox="0 0 1830 57" style="z-index:1;margin-right:-2px;display:block;background-repeat-y:initial;background-repeat-x:initial;background-color:rgb(241, 242, 243);animation-play-state:paused" ><g transform="" style="animation-play-state:paused" ><linearGradient id="lg-0.7984774658070204" x1="0" x2="1" y1="0" y2="0" style="animation-play-state:paused" ><stop stop-color="#970db1" offset="0" style="animation-play-state:paused" ></stop>

  
<stop stop-color="#5a2467" offset="1" style="animation-play-state:paused" ></stop></linearGradient>
<path fill="url(#lg-0.7984774658070204)" opacity="0.4" d="M 0 0 L 0 51.47 Q 183 38.1814 366 16.4935 T 732 37.8313 T 1098 35.3612 T 1464 29.9194 T 1830 32.7551 L 1830 0 Z" style="opacity:0.4;animation-play-state:paused" ></path>
<path fill="url(#lg-0.7984774658070204)" opacity="0.4" d="M 0 0 L 0 25.1906 Q 183 55.6135 366 40.1285 T 732 29.649 T 1098 31.9055 T 1464 42.3907 T 1830 28.3751 L 1830 0 Z" style="opacity:0.4;animation-play-state:paused" ></path>
<path fill="url(#lg-0.7984774658070204)" opacity="0.4" d="M 0 0 L 0 45.1622 Q 183 75.6604 366 26.6921 T 732 21.9242 T 1098 16.8711 T 1464 22.3295 T 1830 21.2386 L 1830 0 Z" style="opacity:0.4;animation-play-state:paused" ></path>
<path fill="url(#lg-0.7984774658070204)" opacity="0.4" d="M 0 0 L 0 31.7384 Q 183 69.5501 366 40.0673 T 732 44.2252 T 1098 18.6726 T 1464 28.0888 T 1830 30.1475 L 1830 0 Z" style="opacity:0.4;animation-play-state:paused" ></path>
<path fill="url(#lg-0.7984774658070204)" opacity="0.4" d="M 0 0 L 0 51.0494 Q 183 76.0206 366 34.1592 T 732 43.0976 T 1098 47.8182 T 1464 42.1127 T 1830 37.3059 L 1830 0 Z" style="opacity:0.4;animation-play-state:paused" ></path>
<path fill="url(#lg-0.7984774658070204)" opacity="0.4" d="M 0 0 L 0 36.8152 Q 183 69.3208 366 40.6485 T 732 31.9895 T 1098 27.045 T 1464 37.3672 T 1830 23.2625 L 1830 0 Z" style="opacity:0.4;animation-play-state:paused" ></path></g></svg>